<?xml version="1.0" standalone="no"?>
<!DOCTYPE svg PUBLIC "-//W3C//DTD SVG 20010904//EN"
 "http://www.w3.org/TR/2001/REC-SVG-20010904/DTD/svg10.dtd">
<svg version="1.0" xmlns="http://www.w3.org/2000/svg"
 width="70.000000pt" height="70.000000pt" viewBox="0 0 70.000000 70.000000"
 preserveAspectRatio="xMidYMid meet">
<metadata>
Created by potrace 1.11, written by Peter Selinger 2001-2013
</metadata>
<g transform="translate(0.000000,70.000000) scale(0.100000,-0.100000)"
fill="#000000" stroke="none">
<path d="M248 687 c-103 -39 -173 -102 -217 -197 -37 -79 -36 -200 1 -282 34
-73 103 -142 176 -176 82 -38 203 -38 283 0 76 35 129 85 170 160 32 59 34 69
34 158 0 114 -18 163 -91 240 -67 71 -137 103 -238 107 -52 2 -94 -2 -118 -10z
m64 -254 c23 -27 30 -53 13 -53 -7 0 -16 9 -20 19 -8 26 -41 32 -59 12 -18
-20 -21 -83 -6 -112 15 -27 45 -24 68 8 22 31 36 18 19 -18 -10 -18 -22 -25
-52 -27 -52 -5 -65 14 -65 94 0 54 3 65 22 78 29 21 61 20 80 -1z m167 -9 c25
-32 26 -44 6 -44 -8 0 -15 7 -15 15 0 8 -9 19 -20 25 -29 15 -60 -19 -60 -66
0 -73 41 -98 78 -47 22 31 36 18 19 -18 -10 -18 -22 -25 -52 -27 -51 -4 -65
15 -65 90 0 45 5 63 20 78 28 28 64 25 89 -6z"/>
</g>
</svg>
